HIERARCHY
ROOT Pelvis
{
	OFFSET 0.000000 0.000000 0.000000
	CHANNELS 6 Xposition Yposition Zposition Zrotation Yrotation Xrotation 
	JOINT Left_hip
	{
		OFFSET 0.070241 -0.085575 -0.010474
		CHANNELS 3 Zrotation Yrotation Xrotation
		JOINT Left_knee
		{
			OFFSET 0.032125 -0.356873 -0.000555
			CHANNELS 3 Zrotation Yrotation Xrotation
			JOINT Left_ankle
			{
				OFFSET -0.010961 -0.370212 -0.042278
				CHANNELS 3 Zrotation Yrotation Xrotation
				JOINT Left_foot
				{
					OFFSET 0.023322 -0.052281 0.110104
					CHANNELS 3 Zrotation Yrotation Xrotation
					End Site
					{
						OFFSET 0.000000 0.000000 0.000000
					}
				}
			}
		}
	}
	JOINT Right_hip
	{
		OFFSET -0.068518 -0.084320 -0.007402
		CHANNELS 3 Zrotation Yrotation Xrotation
		JOINT Right_knee
		{
			OFFSET -0.037345 -0.364815 -0.003619
			CHANNELS 3 Zrotation Yrotation Xrotation
			JOINT Right_ankle
			{
				OFFSET 0.013394 -0.370006 -0.039954
				CHANNELS 3 Zrotation Yrotation Xrotation
				JOINT Right_foot
				{
					OFFSET -0.019600 -0.045455 0.113223
					CHANNELS 3 Zrotation Yrotation Xrotation
					End Site
					{
						OFFSET 0.000000 0.000000 0.000000
					}
				}
			}
		}
	}
	JOINT Spine1
	{
		OFFSET -0.002404 0.098129 -0.018169
		CHANNELS 3 Zrotation Yrotation Xrotation
		JOINT Spine2
		{
			OFFSET 0.003989 0.127209 -0.001742
			CHANNELS 3 Zrotation Yrotation Xrotation
			JOINT Spine3
			{
				OFFSET 0.001758 0.046641 0.023475
				CHANNELS 3 Zrotation Yrotation Xrotation
				JOINT Neck
				{
					OFFSET -0.003759 0.194901 -0.039982
					CHANNELS 3 Zrotation Yrotation Xrotation
					JOINT Head
					{
						OFFSET 0.003999 0.063756 0.047665
						CHANNELS 3 Zrotation Yrotation Xrotation
						End Site
						{
							OFFSET 0.000000 0.000000 0.000000
						}
					}
				}
				JOINT Left_collar
				{
					OFFSET 0.071816 0.109048 -0.028973
					CHANNELS 3 Zrotation Yrotation Xrotation
					JOINT Left_shoulder
					{
						OFFSET 0.084027 0.032269 -0.006525
						CHANNELS 3 Zrotation Yrotation Xrotation
						JOINT Left_elbow
						{
							OFFSET 0.243854 -0.013992 -0.025905
							CHANNELS 3 Zrotation Yrotation Xrotation
							JOINT Left_wrist
							{
								OFFSET 0.232156 0.008196 -0.000339
								CHANNELS 3 Zrotation Yrotation Xrotation
								JOINT Left_palm
								{
									OFFSET 0.075377 -0.009461 -0.012494
									CHANNELS 3 Zrotation Yrotation Xrotation
									End Site
									{
										OFFSET 0.000000 0.000000 0.000000
									}
								}
							}
						}
					}
				}
				JOINT Right_collar
				{
					OFFSET -0.073768 0.107001 -0.033755
					CHANNELS 3 Zrotation Yrotation Xrotation
					JOINT Right_shoulder
					{
						OFFSET -0.086837 0.032868 -0.009431
						CHANNELS 3 Zrotation Yrotation Xrotation
						JOINT Right_elbow
						{
							OFFSET -0.236446 -0.012544 -0.018747
							CHANNELS 3 Zrotation Yrotation Xrotation
							JOINT Right_wrist
							{
								OFFSET -0.236110 0.006124 -0.004327
								CHANNELS 3 Zrotation Yrotation Xrotation
								JOINT Right_palm
								{
									OFFSET -0.074800 -0.006875 -0.009610
									CHANNELS 3 Zrotation Yrotation Xrotation
									End Site
									{
										OFFSET 0.000000 0.000000 0.000000
									}
								}
							}
						}
					}
				}
			}
		}
	}
}
MOTION
Frames: 12
Frame Time: 0.100000
0.000000 0.000000 0.000000 176.856289 21.550536 -9.590926 -0.302579 5.575621 -1.965065 1.855309 -7.713235 -5.624788 -4.686524 19.186859 1.865060 7.082053 -1.605157 -5.491594 1.781330 -5.913709 -3.490882 -1.012513 6.322456 0.416621 2.224785 -19.883204 -4.358833 4.538573 9.201008 9.346584 0.221774 2.880296 -1.519624 0.384458 -1.799158 -2.142966 -0.903886 3.310168 -3.177851 -3.209831 -4.077554 3.309771 2.262972 1.235225 11.766813 -10.195966 3.948219 -13.169415 0.990517 -18.028689 -11.575500 29.291068 -26.364292 -34.844392 66.338138 -10.143920 5.510138 -14.690810 -13.720112 -6.272085 12.685503 -0.263024 -5.928524 -2.589309 10.272268 -19.490234 -29.078432 25.522390 -33.701426 -67.895385 15.675389 4.547323 18.963656 12.576774 -5.126448 
-0.000624 -0.000612 0.002712 176.829796 22.038527 -9.514910 -0.329267 5.235014 -1.916535 1.811825 -7.109850 -5.550754 -4.595963 18.258011 1.972488 7.213012 -0.593249 -5.666036 1.711550 -5.846031 -3.295739 -1.127685 5.401705 0.405621 2.594542 -19.257566 -4.709211 3.922014 8.475920 9.395774 0.224237 2.780542 -1.781846 0.405852 -1.884271 -2.371464 -0.955143 3.134837 -3.073046 -2.879355 -3.663416 3.718370 1.834138 1.221709 11.466426 -9.835974 4.982823 -13.673274 0.304565 -18.412642 -11.084779 37.676146 -33.012219 -38.665878 67.282532 -10.601347 4.688064 -15.488844 -13.984398 -6.498009 12.219436 -1.384099 -6.622796 -1.881381 10.334468 -18.556111 -38.389468 34.749076 -39.034025 -69.020502 15.466473 2.056868 19.672318 12.598802 -5.086254 
-0.001114 -0.001185 0.005321 176.806712 22.203143 -9.619354 -0.295144 5.085932 -1.671293 1.802864 -6.668605 -5.473538 -4.458795 17.612414 2.036790 6.914406 0.062469 -5.970153 1.669977 -5.852030 -2.941520 -1.173760 4.946819 0.337839 2.880464 -18.843486 -4.954977 3.663858 8.186664 9.608832 0.213953 2.864256 -2.164101 0.398748 -1.802089 -2.353691 -0.993511 3.210204 -2.918789 -2.550611 -3.593438 4.262351 1.721695 0.898367 11.513743 -9.144853 5.376137 -13.884517 -0.437653 -18.747834 -10.396836 43.029289 -37.557611 -41.261489 67.556565 -10.882250 3.626818 -15.860581 -14.038336 -6.601837 11.453475 -1.762851 -6.773891 -1.557625 10.340464 -18.051155 -44.321127 39.594214 -42.382644 -69.817126 15.796251 1.054533 20.018626 12.589436 -5.192385 
-0.000844 -0.001462 0.007111 176.777115 22.456538 -9.798814 -0.246132 5.014653 -1.476649 1.791016 -6.685400 -5.295521 -4.454014 17.404119 1.991729 7.009185 0.305231 -6.046632 1.667781 -5.850836 -2.656259 -1.190229 4.773195 0.465361 3.011897 -18.720539 -5.173892 3.428738 7.873894 9.458102 0.148699 2.848357 -2.252621 0.441167 -1.851927 -2.231448 -0.984114 3.176183 -2.921724 -2.437389 -3.562003 4.322618 1.623661 0.840711 11.585442 -8.928925 5.276231 -13.811835 -0.553053 -18.811617 -10.044153 44.032149 -39.170843 -40.340684 67.565796 -11.626394 4.321006 -15.867856 -14.116542 -6.885285 11.290909 -1.601801 -6.900943 -1.630374 10.681379 -17.959911 -47.201916 41.933335 -44.276490 -70.034724 15.931796 0.437318 20.125499 12.441872 -5.190321 
-0.000416 -0.001486 0.008318 176.757045 22.712531 -9.732391 -0.196662 4.907883 -1.565093 1.730761 -6.552169 -5.181292 -4.237542 17.015600 2.069200 6.761838 0.831217 -6.063066 1.686699 -5.789418 -2.688937 -1.192786 4.514261 0.606946 3.109526 -18.526316 -5.392106 3.202576 7.425239 9.457284 0.048424 2.842044 -2.238194 0.515285 -1.921912 -2.276520 -0.971114 3.109255 -2.962673 -2.134340 -3.389025 3.980503 1.623175 0.735776 11.562720 -8.945376 5.126475 -13.758787 -1.368792 -18.763483 -9.488886 44.720511 -39.685770 -39.993809 65.793025 -11.331719 4.705734 -15.801055 -14.132508 -7.047489 11.470479 -1.579345 -6.991723 -0.815791 10.810247 -17.404171 -50.885860 43.972524 -46.622737 -69.738152 15.805307 0.807457 20.413539 12.393227 -5.383177 
-0.000172 -0.001640 0.009540 176.772288 22.802426 -9.651840 -0.168329 4.889803 -1.499283 1.723132 -6.542592 -5.338474 -4.252201 16.927882 2.139177 6.953453 0.979554 -6.028357 1.685822 -5.738653 -2.683025 -1.203660 4.412207 0.623334 3.318802 -18.375478 -5.543135 2.799095 7.047655 9.167042 0.058367 2.770368 -2.226945 0.504210 -1.952266 -2.226311 -0.967463 3.030096 -3.083629 -1.831132 -3.193520 3.783797 1.541608 0.673440 11.556143 -8.950286 5.144932 -13.702516 -1.733058 -18.603739 -8.995482 43.602070 -39.963285 -36.626237 63.927916 -12.674211 7.282602 -15.492793 -14.293698 -7.658415 11.457149 -1.538865 -6.968829 -0.313101 10.891014 -16.731347 -52.113912 45.806739 -46.840019 -67.464181 15.709859 0.780281 20.171222 12.327867 -5.504649 
-0.000175 -0.001857 0.010630 176.794424 22.693806 -9.663281 -0.156962 4.926044 -1.386089 1.774081 -6.445661 -5.390859 -4.507035 16.985566 2.111585 7.353494 0.836760 -6.243865 1.720587 -5.765772 -2.569393 -1.267647 4.379449 0.516796 3.731126 -18.286254 -5.588483 2.023980 7.131902 8.788614 0.141966 2.777405 -2.252908 0.411046 -1.942688 -2.091028 -0.924079 3.059925 -3.199827 -1.770389 -3.037392 3.710429 1.645787 0.559064 11.395778 -8.827012 4.999592 -13.674118 -1.433514 -18.296102 -8.796980 42.620205 -41.741784 -33.308991 60.987154 -15.144240 9.537843 -14.998373 -14.205388 -7.845394 11.153773 -1.238875 -6.876712 -0.707179 10.564051 -16.685170 -51.338159 46.664109 -45.028529 -62.898465 16.814944 1.480095 19.311799 12.138259 -5.464215 
-0.000144 -0.002005 0.011672 176.831199 22.616567 -9.559132 -0.163785 4.983648 -1.394956 1.803673 -6.355893 -5.413066 -4.637744 16.974284 2.091029 7.408019 0.763396 -6.415669 1.733684 -5.785243 -2.557200 -1.294310 4.362901 0.399985 3.781188 -18.232050 -5.548341 1.978718 7.270041 8.741268 0.174869 2.766482 -2.343811 0.337134 -1.942670 -1.887638 -0.953463 3.069412 -3.345538 -1.728454 -3.024639 3.485267 1.653320 0.458393 11.174712 -8.947011 4.732899 -13.622099 -1.379968 -18.296016 -8.732733 44.105405 -43.201943 -33.811949 62.263480 -16.229714 9.956936 -15.020009 -14.312831 -7.949610 11.144518 -1.003043 -6.622695 -0.641614 10.328153 -16.488802 -51.350689 47.323180 -44.289074 -64.003256 17.952590 1.854842 19.269611 12.271942 -5.424445 
-0.000026 -0.002051 0.012573 176.869249 22.572346 -9.306329 -0.175161 4.970490 -1.560671 1.801453 -5.941767 -5.430105 -4.644705 16.604027 2.178892 7.372948 1.061146 -6.583004 1.726875 -5.738099 -2.711464 -1.316579 4.062332 0.317445 4.078875 -17.824685 -5.632195 1.649613 7.010724 8.699509 0.099684 2.745207 -2.527514 0.405402 -1.922324 -1.558656 -1.005704 2.992761 -3.654645 -1.514288 -2.641270 3.188301 1.377904 0.109206 11.007103 -9.259089 5.079140 -13.588884 -1.729024 -17.896496 -7.764994 46.105176 -46.771228 -32.438881 63.035745 -18.790270 11.808840 -14.802083 -14.473431 -8.640029 11.745254 -1.336400 -6.545099 0.130350 9.960599 -15.685569 -56.114821 50.140745 -47.250989 -65.709705 19.637924 1.617404 19.365753 12.186072 -5.495950 
0.000010 -0.001983 0.012779 176.847330 22.573506 -9.113030 -0.159202 4.829579 -1.767426 1.768853 -5.018849 -5.304016 -4.392801 15.654114 2.427854 6.948352 2.025201 -7.270359 1.739581 -5.560126 -2.958862 -1.407056 3.422088 0.466964 4.686503 -17.092242 -5.878275 0.690554 6.668948 8.792690 0.123150 2.707181 -2.545353 0.461961 -1.830409 -1.327700 -1.036668 2.952848 -3.707409 -1.145404 -2.120241 2.918207 0.910625 -0.393380 10.357308 -8.982210 5.810334 -13.553469 -3.579027 -17.365606 -5.930741 57.636381 -54.961411 -38.724432 63.576564 -20.630580 12.273868 -15.338836 -14.860813 -9.431861 11.742712 -1.952323 -6.495106 2.074107 9.677824 -14.110740 -70.729373 55.107919 -58.045683 -67.157935 20.745202 0.476097 19.985523 12.288521 -5.786139 
-0.000248 -0.001676 0.012729 176.840295 22.718694 -8.666311 -0.334801 4.465366 -2.263167 1.840832 -3.595728 -5.202868 -4.463260 14.358636 2.753253 7.202352 3.254295 -8.213398 1.646259 -5.358539 -3.509963 -1.559590 2.407546 0.684499 5.593015 -16.053402 -6.192589 -1.235411 6.407682 8.602387 0.381445 2.621624 -2.561968 0.202501 -1.804462 -1.135668 -1.231951 2.849544 -4.029834 -0.415361 -1.634935 2.588213 0.206545 -1.132171 10.088769 -8.720860 6.434529 -14.247255 -5.645028 -18.697658 -5.379443 89.960561 -60.940345 -64.438638 64.455741 -22.991308 13.180416 -16.463163 -15.691346 -10.168492 11.252592 -2.414865 -6.740020 4.386062 10.418564 -12.577753 -97.556590 56.917825 -79.716639 -68.490462 21.534935 -1.302799 20.567934 13.005055 -5.894452 
-0.000496 -0.001101 0.013286 176.680019 22.843592 -8.374897 -0.254540 4.253224 -2.663353 1.779472 -2.459395 -5.112043 -4.822191 13.184932 2.962282 7.761911 4.498069 -9.016506 1.718356 -5.180579 -3.775848 -1.794947 1.346107 0.552010 6.671351 -14.970751 -6.318428 -3.187777 6.140188 8.458706 0.554122 2.621485 -2.480241 0.143810 -1.917071 -0.885037 -1.217695 2.814399 -4.377052 -0.286772 -1.418700 2.224369 -0.353327 -1.627716 9.698300 -8.788058 5.897938 -14.714338 -6.209855 -19.953738 -6.774172 125.145795 -56.304993 -92.278250 66.503527 -26.468241 14.850340 -17.242457 -16.761609 -10.058253 11.531901 -2.164867 -6.917154 4.427742 10.420349 -12.840278 -127.620473 52.628052 -101.331798 -71.088212 26.769766 1.813830 21.186734 14.037589 -6.252210 
